<?xml version="1.0" standalone="no"?>
<!DOCTYPE svg PUBLIC "-//W3C//DTD SVG 20010904//EN"
 "http://www.w3.org/TR/2001/REC-SVG-20010904/DTD/svg10.dtd">
<svg version="1.0" xmlns="http://www.w3.org/2000/svg"
 width="1895.000000pt" height="780.000000pt" viewBox="0 0 1895.000000 780.000000"
 preserveAspectRatio="xMidYMid meet">

<g transform="translate(0.000000,780.000000) scale(0.100000,-0.100000)"
fill="#000000" stroke="none">
<path d="M0 5750 c0 -1212 4 -2050 9 -2050 5 0 14 12 19 28 6 15 37 100 70
190 33 90 62 165 65 168 7 7 100 -41 172 -89 93 -62 95 -64 84 -97 -9 -23 -5
-39 21 -92 18 -34 39 -71 48 -80 8 -10 11 -18 5 -18 -16 0 -40 32 -66 88 -19
41 -26 50 -31 35 -3 -10 -40 -72 -81 -138 -41 -65 -75 -122 -75 -126 0 -3 35
-34 78 -67 42 -33 87 -71 99 -84 22 -23 22 -25 7 -73 -8 -28 -16 -70 -18 -95
-2 -25 -7 -57 -11 -72 l-7 -28 220 0 219 0 7 -46 c3 -26 6 -78 6 -115 l0 -69
-210 0 -209 0 -6 38 c-3 20 -10 57 -15 82 -5 25 -14 84 -20 133 l-12 87 -32 1
c-45 2 -67 -1 -103 -12 l-32 -10 4 -275 4 -274 -69 0 -70 0 0 38 c0 38 0 38
-35 34 l-35 -4 0 -104 0 -103 152 -3 153 -3 8 -54 c6 -47 5 -57 -13 -73 -11
-10 -20 -23 -20 -28 0 -21 15 -42 35 -50 17 -6 24 -19 27 -47 3 -21 15 -107
28 -190 22 -143 22 -154 7 -171 -25 -28 -22 -71 6 -81 22 -8 26 -22 46 -153
12 -78 26 -165 31 -193 7 -43 6 -52 -11 -68 -27 -25 -23 -77 6 -77 21 0 28
-18 41 -110 7 -47 19 -132 28 -189 16 -102 16 -104 -4 -118 -29 -20 -25 -51 9
-70 25 -15 30 -25 35 -73 3 -30 16 -116 27 -191 l22 -136 -22 -22 c-11 -11
-21 -24 -21 -29 0 -16 32 -52 46 -52 8 0 14 -6 14 -13 0 -7 11 -90 25 -183 14
-93 25 -170 25 -171 0 -2 38 -3 84 -3 l85 0 -5 32 c-3 18 -15 102 -28 186
l-23 152 233 0 232 0 5 -22 c3 -13 16 -96 28 -185 l23 -163 83 0 c95 0 91 -5
73 105 -6 33 -46 303 -90 600 -44 297 -82 555 -85 573 l-6 32 71 0 70 0 0
-303 c0 -282 1 -305 18 -320 10 -10 27 -17 38 -17 11 0 88 53 172 118 l152
118 73 -9 c145 -18 318 13 449 80 144 74 235 153 341 296 l28 37 94 0 95 0 35
-70 c75 -149 151 -259 264 -382 54 -59 61 -71 61 -108 0 -23 5 -50 10 -61 13
-24 57 -25 82 -2 18 16 21 16 46 -1 54 -35 171 -86 248 -107 108 -30 250 -30
357 0 76 21 196 75 249 112 14 11 29 19 32 19 3 0 6 -25 6 -55 l0 -55 45 0 45
0 0 93 0 92 81 90 c95 105 206 267 251 366 l31 69 170 0 170 0 -44 34 c-24 19
-69 57 -99 85 -30 28 -60 51 -66 51 -20 0 -46 38 -40 58 8 24 78 34 181 25 59
-5 74 -3 88 11 20 20 22 57 5 74 -16 16 -754 17 -830 1 -53 -11 -183 -71 -190
-87 -1 -4 -24 -23 -50 -42 -27 -18 -48 -36 -48 -40 0 -4 25 -24 55 -44 31 -20
53 -41 50 -46 -9 -15 -720 -560 -730 -560 -3 0 -5 108 -5 240 l0 240 58 1 57
2 -55 7 c-138 20 -226 61 -399 183 l-74 52 77 3 c74 3 79 1 111 -27 97 -85
208 -122 370 -122 178 0 272 36 455 172 104 78 167 113 250 140 l55 18 -155 1
c-586 3 -685 1 -762 -19 -42 -11 -95 -29 -117 -40 -38 -20 -57 -21 -380 -21
-358 0 -405 -4 -500 -46 -56 -25 -191 -120 -191 -134 0 -5 27 -25 60 -46 33
-20 60 -38 60 -40 0 -1 -159 -125 -352 -275 -194 -150 -359 -276 -366 -282 -9
-7 -12 40 -12 232 l0 241 191 0 c173 0 189 1 175 16 -31 30 -18 52 88 143 204
175 305 239 411 261 23 5 -153 8 -410 6 l-450 -1 -80 -27 c-44 -15 -111 -47
-148 -72 -42 -28 -70 -40 -72 -33 -2 7 -15 93 -30 192 -14 99 -44 302 -65 450
-22 149 -40 278 -40 288 0 16 15 17 178 17 l177 -1 16 -32 c8 -18 33 -66 55
-106 38 -74 39 -77 39 -180 l0 -105 34 -23 c19 -13 41 -23 51 -23 9 0 38 -14
66 -31 27 -18 67 -40 89 -50 44 -20 125 -25 156 -9 23 13 25 47 2 72 -29 32
-9 28 58 -13 104 -63 216 -74 236 -23 8 21 -5 43 -92 154 -78 99 -93 132 -115
260 -6 36 -14 75 -17 88 l-5 22 392 0 392 0 61 -34 c67 -38 148 -60 179 -50
20 6 21 25 3 67 -7 16 9 17 245 17 l253 0 34 35 c33 34 36 35 108 35 l75 0 0
35 0 35 -129 0 -129 0 -42 65 -42 64 -29 -15 c-165 -85 -417 -146 -666 -162
-123 -8 -123 -8 -123 60 0 55 -6 58 -96 58 l-84 0 0 -35 0 -35 -209 0 c-116 0
-212 4 -215 8 -2 4 -8 36 -12 70 -6 60 -6 62 16 62 22 0 22 2 16 68 l-7 68 35
31 c35 31 35 31 29 97 l-6 66 50 0 49 0 14 98 c7 53 15 124 18 157 2 33 10 67
17 75 7 8 16 42 20 75 l7 60 -48 15 c-61 19 -81 48 -94 137 -9 58 -9 77 3 100
8 15 18 55 22 88 11 94 33 134 95 178 l23 16 -41 45 c-44 48 -58 93 -49 154 8
44 230 498 260 530 52 56 130 68 187 30 56 -38 72 -69 78 -147 l5 -71 43 0
c43 0 45 1 75 56 51 90 125 118 197 74 42 -26 60 -69 82 -200 47 -275 30 -452
-49 -524 l-21 -19 44 -47 c24 -25 46 -56 50 -67 6 -20 8 -20 61 -5 49 14 55
13 70 -2 9 -9 25 -16 35 -16 19 0 36 -29 23 -41 -4 -3 -53 -23 -108 -43 -126
-45 -151 -43 -358 22 -86 27 -159 46 -162 42 -8 -13 -65 -164 -62 -166 1 -1
18 -6 37 -11 45 -12 47 -38 3 -38 -40 0 -41 -3 -5 -31 34 -28 20 -51 -22 -34
-40 15 -55 11 -23 -6 42 -23 35 -45 -14 -42 -40 3 -41 2 -59 -45 -13 -35 -15
-49 -7 -52 56 -19 383 -105 401 -105 12 0 79 24 148 54 126 54 126 55 175 42
27 -7 58 -18 69 -24 38 -20 93 -91 104 -134 6 -24 19 -72 29 -108 l18 -65 142
-5 c111 -4 144 -8 151 -20 5 -8 10 -59 10 -114 0 -89 2 -98 18 -91 278 113
524 112 729 -1 110 -61 220 -176 278 -292 24 -48 28 -51 73 -57 26 -4 99 -18
162 -32 63 -14 125 -26 137 -27 12 -2 28 -8 36 -14 7 -6 24 -13 38 -14 13 -2
30 -9 38 -17 13 -11 16 -11 21 5 6 16 7 16 12 -4 4 -12 14 -22 23 -22 9 0 14
4 11 8 -3 5 1 9 9 9 8 0 12 -8 10 -20 -4 -15 -2 -17 10 -7 8 7 13 16 10 19 -2
4 2 8 9 8 7 0 13 -6 13 -13 0 -7 -5 -10 -11 -7 -6 4 -5 -1 3 -10 14 -18 26
-23 16 -8 -3 5 -1 12 5 16 6 4 8 10 6 14 -3 4 1 8 8 8 7 0 13 -6 13 -13 0 -7
-3 -11 -7 -9 -4 2 -7 -2 -7 -9 0 -7 6 -13 13 -13 7 0 11 4 8 8 -2 4 0 10 6 14
6 4 8 10 6 14 -3 4 1 8 8 8 7 0 13 -6 13 -13 0 -7 -3 -11 -7 -9 -4 2 -7 -2 -7
-10 0 -13 3 -12 18 1 10 9 17 20 14 24 -2 4 2 7 9 7 7 0 13 -6 13 -13 0 -7 -3
-11 -7 -9 -4 2 -7 -2 -7 -9 0 -7 6 -13 13 -13 7 0 11 4 8 8 -2 4 0 10 6 14 6
4 8 10 6 14 -3 4 1 8 8 8 7 0 13 -6 13 -13 0 -7 -3 -11 -7 -9 -4 2 -7 -2 -7
-9 0 -7 6 -13 13 -13 7 0 11 4 8 8 -2 4 0 10 6 14 6 4 8 10 6 14 -3 4 1 8 8 8
7 0 13 -6 13 -13 0 -7 -3 -11 -7 -9 -4 2 -7 -2 -7 -9 0 -7 6 -13 13 -13 7 0
11 4 8 8 -2 4 0 10 6 14 6 4 8 10 6 14 -3 4 1 8 8 8 7 0 13 -6 13 -13 0 -7 -3
-11 -7 -9 -4 2 -7 -2 -7 -9 0 -7 6 -13 13 -13 7 0 11 4 8 8 -2 4 0 10 6 14 6
4 8 10 6 14 -3 4 1 8 8 8 7 0 13 -6 13 -13 0 -7 -3 -11 -7 -9 -4 2 -7 -2 -7
-9 0 -7 6 -13 13 -13 7 0 11 4 8 8 -2 4 0 10 6 14 6 4 8 10 6 14 -3 4 1 8 8 8
7 0 13 -6 13 -13 0 -7 -3 -11 -7 -9 -4 2 -7 -2 -7 -9 0 -7 6 -13 13 -13 7 0
11 4 8 8 -2 4 0 10 6 14 6 4 8 10 6 14 -3 4 1 8 8 8 7 0 13 -6 13 -13 0 -7 -3
-11 -7 -9 -4 2 -7 -2 -7 -9 0 -7 6 -13 13 -13 7 0 11 4 8 8 -2 4 0 10 6 14 6
4 8 10 6 14 -3 4 1 8 8 8 7 0 13 -6 13 -13 0 -7 -3 -11 -7 -9 -4 2 -7 -2 -7
-9 0 -7 6 -13 13 -13 7 0 11 4 8 8 -2 4 0 10 6 14 6 4 8 10 6 14 -3 4 1 8 8 8
7 0 13 -6 13 -13 0 -7 -3 -11 -7 -9 -4 2 -7 -2 -7 -9 0 -7 6 -13 13 -13 7 0
11 4 8 8 -2 4 0 10 6 14 6 4 8 10 6 14 -3 4 1 8 8 8 7 0 13 -6 13 -13 0 -7 -3
-11 -7 -9 -4 2 -7 -2 -7 -9 0 -7 6 -13 13 -13 7 0 11 4 8 8 -2 4 0 10 6 14 6
4 8 10 6 14 -3 4 1 8 8 8 7 0 13 -6 13 -13 0 -7 -3 -11 -7 -9 -4 2 -7 -2 -7
-9 0 -7 6 -13 13 -13 7 0 11 4 8 8 -2 4 0 10 6 14 6 4 8 10 6 14 -3 4 1 8 8 8
7 0 13 -6 13 -13 0 -7 -3 -11 -7 -9 -4 2 -7 -2 -7 -9 0 -7 6 -13 13 -13 7 0
11 4 8 8 -2 4 0 10 6 14 6 4 8 10 6 14 -3 4 1 8 8 8 7 0 13 -6 13 -13 0 -7 -3
-11 -7 -9 -4 2 -7 -2 -7 -9 0 -7 6 -13 13 -13 7 0 11 4 8 8 -2 4 0 10 6 14 6
4 8 10 6 14 -3 4 1 8 8 8 7 0 13 -6 13 -13 0 -7 -3 -11 -7 -9 -4 2 -7 -2 -7
-9 0 -7 6 -13 13 -13 7 0 11 4 8 8 -2 4 0 10 6 14 6 4 8 10 6 14 -3 4 1 8 8 8
7 0 13 -6 13 -13 0 -7 -3 -11 -7 -9 -4 2 -7 -2 -7 -9 0 -7 6 -13 13 -13 7 0
11 4 8 8 -2 4 0 10 6 14 6 4 8 10 6 14 -3 4 1 8 8 8 7 0 13 -6 13 -13 0 -7 -3
-11 -7 -9 -4 2 -7 -2 -7 -9 0 -7 6 -13 13 -13 7 0 11 4 8 8 -2 4 0 10 6 14 6
4 8 10 6 14 -3 4 1 8 8 8 7 0 13 -6 13 -13 0 -7 -3 -11 -7 -9 -4 2 -7 -2 -7
-9 0 -7 6 -13 13 -13 7 0 11 4 8 8 -2 4 0 10 6 14 6 4 8 10 6 14 -3 4 1 8 8 8
7 0 13 -6 13 -13 0 -7 -3 -11 -7 -9 -4 2 -7 -2 -7 -9 0 -7 6 -13 13 -13 7 0
11 4 8 8 -2 4 0 10 6 14 6 4 8 10 6 14 -3 4 1 8 8 8 7 0 13 -6 13 -13 0 -7 -3
-11 -7 -9 -4 2 -7 -2 -7 -9 0 -7 6 -13 13 -13 7 0 11 4 8 8 -2 4 0 10 6 14 6
4 8 10 6 14 -3 4 1 8 8 8 7 0 13 -6 13 -13 0 -7 -3 -11 -7 -9 -4 2 -7 -2 -7
-9 0 -7 6 -13 13 -13 7 0 11 4 8 8 -2 4 0 10 6 14 6 4 8 10 6 14 -3 4 1 8 8 8
7 0 13 -6 13 -13 0 -7 -3 -11 -7 -9 -4 2 -7 -2 -7 -9 0 -7 6 -13 13 -13 7 0
11 4 8 8 -2 4 0 10 6 14 6 4 8 10 6 14 -3 4 1 8 8 8 7 0 13 -6 13 -13 0 -7 -3
-11 -7 -9 -4 2 -7 -2 -7 -9 0 -7 6 -13 13 -13 7 0 11 4 8 8 -2 4 0 10 6 14 6
4 8 10 6 14 -3 4 1 8 8 8 7 0 13 -6 13 -13 0 -7 -3 -11 -7 -9 -4 2 -7 -2 -7
-9 0 -7 6 -13 13 -13 7 0 11 4 8 8 -2 4 0 10 6 14 6 4 8 10 6 14 -3 4 1 8 8 8
7 0 13 -6 13 -13 0 -7 -3 -11 -7 -9 -4 2 -7 -2 -7 -9 0 -7 6 -13 13 -13 7 0
11 4 8 8 -2 4 0 10 6 14 6 4 8 10 6 14 -3 4 1 8 8 8 7 0 13 -6 13 -13 0 -7 -3
-11 -7 -9 -4 2 -7 -2 -7 -9 0 -7 6 -13 13 -13 7 0 11 4 8 8 -2 4 0 10 6 14 6
4 8 10 6 14 -3 4 1 8 8 8 7 0 13 -6 13 -13 0 -7 -3 -11 -7 -9 -4 2 -7 -2 -7
-9 0 -7 6 -13 13 -13 7 0 11 4 8 8 -2 4 0 10 6 14 6 4 8 10 6 14 -3 4 1 8 8 8
7 0 13 -6 13 -13 0 -7 -3 -11 -7 -9 -4 2 -7 -2 -7 -9 0 -7 6 -13 13 -13 7 0
11 4 8 8 -2 4 0 10 6 14 6 4 8 10 6 14 -3 4 1 8 8 8 7 0 13 -6 13 -13 0 -7 -3
-11 -7 -9 -4 2 -7 -2 -7 -9 0 -7 6 -13 13 -13 7 0 11 4 8 8 -2 4 0 10 6 14 6
4 8 10 6 14 -3 4 1 8 8 8 7 0 13 -6 13 -13 0 -7 -3 -11 -7 -9 -4 2 -7 -2 -7
-9 0 -7 6 -13 13 -13 7 0 11 4 8 8 -2 4 0 10 6 14 6 4 8 10 6 14 -3 4 1 8 8 8
7 0 13 -6 13 -13 0 -7 -3 -11 -7 -9 -4 2 -7 -2 -7 -9 0 -7 6 -13 13 -13 7 0
11 4 8 8 -2 4 0 10 6 14 6 4 8 10 6 14 -3 4 1 8 8 8 7 0 13 -6 13 -13 0 -7 -3
-11 -7 -9 -4 2 -7 -2 -7 -9 0 -7 6 -13 13 -13 7 0 11 4 8 8 -2 4 0 10 6 14 6
4 8 10 6 14 -3 4 1 8 8 8 7 0 13 -6 13 -13 0 -7 -3 -11 -7 -9 -4 2 -7 -2 -7
-9 0 -7 6 -13 13 -13 7 0 11 4 8 8 -2 4 0 10 6 14 6 4 8 10 6 14 -3 4 1 8 8 8
7 0 13 -6 13 -13 0 -7 -3 -11 -7 -9 -4 2 -7 -2 -7 -9 0 -7 6 -13 13 -13 7 0
11 4 8 8 -2 4 0 10 6 14 6 4 8 10 6 14 -3 4 1 8 8 8 7 0 13 -6 13 -13 0 -7 -3
-11 -7 -9 -4 2 -7 -2 -7 -9 0 -7 6 -13 13 -13 7 0 11 4 8 8 -2 4 0 10 6 14 6
4 8 10 6 14 -3 4 1 8 8 8 7 0 13 -6 13 -13 0 -7 -3 -11 -7 -9 -4 2 -7 -2 -7
-9 0 -7 6 -13 13 -13 7 0 11 4 8 8 -2 4 0 10 6 14 6 4 8 10 6 14 -3 4 1 8 8 8
7 0 13 -6 13 -13 0 -7 -3 -11 -7 -9 -4 2 -7 -2 -7 -9 0 -7 6 -13 13 -13 7 0
11 4 8 8 -2 4 0 10 6 14 6 4 8 10 6 14 -3 4 1 8 8 8 7 0 13 -6 13 -13 0 -7 -3
-11 -7 -9 -4 2 -7 -2 -7 -9 0 -7 6 -13 13 -13 7 0 11 4 8 8 -2 4 0 10 6 14 6
4 8 10 6 14 -3 4 1 8 8 8 7 0 13 -6 13 -13 0 -7 -3 -11 -7 -9 -4 2 -7 -2 -7
-9 0 -7 6 -13 13 -13 7 0 11 4 8 8 -2 4 0 10 6 14 6 4 8 10 6 14 -3 4 1 8 8 8
7 0 13 -6 13 -13 0 -7 -3 -11 -7 -9 -4 2 -7 -2 -7 -9 0 -7 6 -13 13 -13 7 0
11 4 8 8 -2 4 0 10 6 14 6 4 8 10 6 14 -3 4 1 8 8 8 7 0 13 -6 13 -13 0 -7 -3
-11 -7 -9 -4 2 -7 -2 -7 -9 0 -7 6 -13 13 -13 7 0 11 4 8 8 -2 4 0 10 6 14 6
4 8 10 6 14 -3 4 1 8 8 8 7 0 13 -6 13 -13 0 -7 -3 -11 -7 -9 -4 2 -7 -2 -7
-9 0 -7 6 -13 13 -13 7 0 11 4 8 8 -2 4 0 10 6 14 6 4 8 10 6 14 -3 4 1 8 8 8
7 0 13 -6 13 -13 0 -7 -3 -11 -7 -9 -4 2 -7 -2 -7 -9 0 -7 6 -13 13 -13 7 0
11 4 8 8 -2 4 0 10 6 14 6 4 8 10 6 14 -3 4 1 8 8 8 7 0 13 -6 13 -13 0 -7 -3
-11 -7 -9 -4 2 -7 -2 -7 -9 0 -7 6 -13 13 -13 7 0 11 4 8 8 -2 4 0 10 6 14 6
4 8 10 6 14 -3 4 1 8 8 8 7 0 13 -6 13 -13 0 -7 -3 -11 -7 -9 -4 2 -7 -2 -7
-9 0 -7 6 -13 13 -13 7 0 11 4 8 8 -2 4 0 10 6 14 6 4 8 10 6 14 -3 4 1 8 8 8
7 0 13 -6 13 -13 0 -7 -3 -11 -7 -9 -4 2 -7 -2 -7 -9 0 -7 6 -13 13 -13 7 0
11 4 8 8 -2 4 0 10 6 14 6 4 8 10 6 14 -3 4 1 8 8 8 7 0 13 -6 13 -13 0 -7 -3
-11 -7 -9 -4 2 -7 -2 -7 -9 0 -7 6 -13 13 -13 7 0 11 4 8 8 -2 4 0 10 6 14 6
4 8 10 6 14 -3 4 1 8 8 8 7 0 13 -6 13 -13 0 -7 -3 -11 -7 -9 -4 2 -7 -2 -7
-9 0 -7 6 -13 13 -13 7 0 11 4 8 8 -2 4 0 10 6 14 6 4 8 10 6 14 -3 4 1 8 8 8
7 0 13 -6 13 -13 0 -7 -3 -11 -7 -9 -4 2 -7 -2 -7 -9 0 -7 6 -13 13 -13 7 0
11 4 8 8 -2 4 0 10 6 14 6 4 8 10 6 14 -3 4 1 8 8 8 7 0 13 -6 13 -13 0 -7 -3
-11 -7 -9 -4 2 -7 -2 -7 -9 0 -7 6 -13 13 -13 7 0 11 4 8 8 -2 4 0 10 6 14 6
4 8 10 6 14 -3 4 1 8 8 8 7 0 13 -6 13 -13 0 -7 -3 -11 -7 -9 -4 2 -7 -2 -7
-9 0 -7 6 -13 13 -13 7 0 11 4 8 8 -2 4 0 10 6 14 6 4 8 10 6 14 -3 4 1 8 8 8
7 0 13 -6 13 -13 0 -7 -3 -11 -7 -9 -4 2 -7 -2 -7 -9 0 -7 6 -13 13 -13 7 0
11 4 8 8 -2 4 0 10 6 14 6 4 8 10 6 14 -3 4 1 8 8 8 7 0 13 -6 13 -13 0 -7 -3
-11 -7 -9 -4 2 -7 -2 -7 -9 0 -7 6 -13 13 -13 7 0 11 4 8 8 -2 4 0 10 6 14 6
4 8 10 6 14 -3 4 1 8 8 8 7 0 13 -6 13 -13 0 -7 -3 -11 -7 -9 -4 2 -7 -2 -7
-9 0 -7 6 -13 13 -13 7 0 11 4 8 8 -2 4 0 10 6 14 6 4 8 10 6 14 -3 4 1 8 8 8
7 0 13 -6 13 -13 0 -7 -3 -11 -7 -9 -4 2 -7 -2 -7 -9 0 -7 6 -13 13 -13 7 0
11 4 8 8 -2 4 0 10 6 14 6 4 8 10 6 14 -3 4 1 8 8 8 7 0 13 -6 13 -13 0 -7 -3
-11 -7 -9 -4 2 -7 -2 -7 -9 0 -7 6 -13 13 -13 7 0 11 4 8 8 -2 4 0 10 6 14 6
4 8 10 6 14 -3 4 1 8 8 8 7 0 13 -6 13 -13 0 -7 -3 -11 -7 -9 -4 2 -7 -2 -7
-9 0 -7 6 -13 13 -13 7 0 11 4 8 8 -2 4 0 10 6 14 6 4 8 10 6 14 -3 4 1 8 8 8
7 0 13 -6 13 -13 0 -7 -3 -11 -7 -9 -4 2 -7 -2 -7 -9 0 -7 6 -13 13 -13 7 0
11 4 8 8 -2 4 0 10 6 14 6 4 8 10 6 14 -3 4 1 8 8 8 7 0 13 -6 13 -13 0 -7 -3
-11 -7 -9 -4 2 -7 -2 -7 -9 0 -7 6 -13 13 -13 7 0 11 4 8 8 -2 4 0 10 6 14 6
4 8 10 6 14 -3 4 1 8 8 8 7 0 13 -6 13 -13 0 -7 -3 -11 -7 -9 -4 2 -7 -2 -7
-9 0 -7 6 -13 13 -13 7 0 11 4 8 8 -2 4 0 10 6 14 6 4 8 10 6 14 -3 4 1 8 8 8
7 0 13 -6 13 -13 0 -7 -3 -11 -7 -9 -4 2 -7 -2 -7 -9 0 -7 6 -13 13 -13 7 0
11 4 8 8 -2 4 0 10 6 14 6 4 8 10 6 14 -3 4 1 8 8 8 7 0 13 -6 13 -13 0 -7 -3
-11 -7 -9 -4 2 -7 -2 -7 -9 0 -7 6 -13 13 -13 7 0 11 4 8 8 -2 4 0 10 6 14 6
4 8 10 6 14 -3 4 1 8 8 8 7 0 13 -6 13 -13 0 -7 -3 -11 -7 -9 -4 2 -7 -2 -7
-9 0 -7 6 -13 13 -13 7 0 11 4 8 8 -2 4 0 10 6 14 6 4 8 10 6 14 -3 4 1 8 8 8
7 0 13 -6 13 -13 0 -7 -3 -11 -7 -9 -4 2 -7 -2 -7 -9 0 -7 6 -13 13 -13 7 0
11 4 8 8 -2 4 0 10 6 14 6 4 8 10 6 14 -3 4 1 8 8 8 7 0 13 -6 13 -13 0 -7 -3
-11 -7 -9 -4 2 -7 -2 -7 -9 0 -7 6 -13 13 -13 7 0 11 4 8 8 -2 4 0 10 6 14 6
4 8 10 6 14 -3 4 1 8 8 8 7 0 13 -6 13 -13 0 -7 -3 -11 -7 -9 -4 2 -7 -2 -7
-9 0 -7 6 -13 13 -13 7 0 11 4 8 8 -2 4 0 10 6 14 6 4 8 10 6 14 -3 4 1 8 8 8
7 0 13 -6 13 -13 0 -7 -3 -11 -7 -9 -4 2 -7 -2 -7 -9 0 -7 6 -13 13 -13 7 0
11 4 8 8 -2 4 0 10 6 14 6 4 8 10 6 14 -3 4 1 8 8 8 7 0 13 -6 13 -13 0 -7 -3
-11 -7 -9 -4 2 -7 -2 -7 -9 0 -7 6 -13 13 -13 7 0 11 4 8 8 -2 4 0 10 6 14 6
4 8 10 6 14 -3 4 1 8 8 8 7 0 13 -6 13 -13 0 -7 -3 -11 -7 -9 -4 2 -7 -2 -7
-9 0 -7 6 -13 13 -13 7 0 11 4 8 8 -2 4 0 10 6 14 6 4 8 10 6 14 -3 4 1 8 8 8
7 0 13 -6 13 -13 0 -7 -3 -11 -7 -9 -4 2 -7 -2 -7 -9 0 -7 6 -13 13 -13 7 0
11 4 8 8 -2 4 0 10 6 14 6 4 8 10 6 14 -3 4 1 8 8 8 7 0 13 -6 13 -13 0 -7 -3
-11 -7 -9 -4 2 -7 -2 -7 -9 0 -7 6 -13 13 -13 7 0 11 4 8 8 -2 4 0 10 6 14 6
4 8 10 6 14 -3 4 1 8 8 8 7 0 13 -6 13 -13 0 -7 -3 -11 -7 -9 -4 2 -7 -2 -7
-9 0 -7 6 -13 13 -13 7 0 11 4 8 8 -2 4 0 10 6 14 6 4 8 10 6 14 -3 4 1 8 8 8
7 0 13 -6 13 -13 0 -7 -3 -11 -7 -9 -4 2 -7 -2 -7 -9 0 -7 6 -13 13 -13 7 0
11 4 8 8 -2 4 0 10 6 14 6 4 8 10 6 14 -3 4 1 8 8 8 7 0 13 -6 13 -13 0 -7 -3
-11 -7 -9 -4 2 -7 -2 -7 -9 0 -7 6 -13 13 -13 7 0 11 4 8 8 -2 4 0 10 6 14 6
4 8 10 6 14 -3 4 1 8 8 8 7 0 13 -6 13 -13 0 -7 -3 -11 -7 -9 -4 2 -7 -2 -7
-9 0 -7 6 -13 13 -13 7 0 11 4 8 8 -2 4 0 10 6 14 6 4 8 10 6 14 -3 4 1 8 8 8
7 0 13 -6 13 -13 0 -7 -3 -11 -7 -9 -4 2 -7 -2 -7 -9 0 -7 6 -13 13 -13 7 0
11 4 8 8 -2 4 0 10 6 14 6 4 8 10 6 14 -3 4 1 8 8 8 7 0 13 -6 13 -13 0 -7 -3
-11 -7 -9 -4 2 -7 -2 -7 -9 0 -7 6 -13 13 -13 7 0 11 4 8 8 -2 4 0 10 6 14 6
4 8 10 6 14 -3 4 1 8 8 8 7 0 13 -6 13 -13 0 -7 -3 -11 -7 -9 -4 2 -7 -2 -7
-9 0 -7 6 -13 13 -13 7 0 11 4 8 8 -2 4 0 10 6 14 6 4 8 10 6 14 -3 4 1 8 8 8
7 0 13 -6 13 -13 0 -7 -3 -11 -7 -9 -4 2 -7 -2 -7 -9 0 -7 6 -13 13 -13 7 0
11 4 8 8 -2 4 0 10 6 14 6 4 8 10 6 14 -3 4 1 8 8 8 7 0 13 -6 13 -13 0 -7 -3
-11 -7 -9 -4 2 -7 -2 -7 -9 0 -7 6 -13 13 -13 7 0 11 4 8 8 -2 4 0 10 6 14 6
4 8 10 6 14 -3 4 1 8 8 8 7 0 13 -6 13 -13 0 -7 -3 -11 -7 -9 -4 2 -7 -2 -7
-9 0 -7 6 -13 13 -13 7 0 11 4 8 8 -2 4 0 10 6 14 6 4 8 10 6 14 -3 4 1 8 8 8
7 0 13 -6 13 -13 0 -7 -3 -11 -7 -9 -4 2 -7 -2 -7 -9 0 -7 6 -13 13 -13 7 0
11 4 8 8 -2 4 0 10 6 14 6 4 8 10 6 14 -3 4 1 8 8 8 7 0 13 -6 13 -13 0 -7 -3
-11 -7 -9 -4 2 -7 -2 -7 -9 0 -7 6 -13 13 -13 7 0 11 4 8 8 -2 4 0 10 6 14 6
4 8 10 6 14 -3 4 1 8 8 8 7 0 13 -6 13 -13 0 -7 -3 -11 -7 -9 -4 2 -7 -2 -7
-9 0 -7 6 -13 13 -13 7 0 11 4 8 8 -2 4 0 10 6 14 6 4 8 10 6 14 -3 4 1 8 8 8
7 0 13 -6 13 -13 0 -7 -3 -11 -7 -9 -4 2 -7 -2 -7 -9 0 -7 6 -13 13 -13 7 0
11 4 8 8 -2 4 0 10 6 14 6 4 8 10 6 14 -3 4 1 8 8 8 7 0 13 -6 13 -13 0 -7 -3
-11 -7 -9 -4 2 -7 -2 -7 -9 0 -7 6 -13 13 -13 7 0 11 4 8 8 -2 4 0 10 6 14 6
4 8 10 6 14 -3 4 1 8 8 8 7 0 13 -6 13 -13 0 -7 -3 -11 -7 -9 -4 2 -7 -2 -7
-9 0 -7 6 -13 13 -13 7 0 11 4 8 8 -2 4 0 10 6 14 6 4 8 10 6 14 -3 4 1 8 8 8
7 0 13 -6 13 -13 0 -7 -3 -11 -7 -9 -4 2 -7 -2 -7 -9 0 -7 6 -13 13 -13 7 0
11 4 8 8 -2 4 0 10 6 14 6 4 8 10 6 14 -3 4 1 8 8 8 7 0 13 -6 13 -13 0 -7 -3
-11 -7 -9 -4 2 -7 -2 -7 -9 0 -7 6 -13 13 -13 7 0 11 4 8 8 -2 4 0 10 6 14 6
4 8 10 6 14 -3 4 1 8 8 8 7 0 13 -6 13 -13 0 -7 -3 -11 -7 -9 -4 2 -7 -2 -7
-9 0 -7 6 -13 13 -13 7 0 11 4 8 8 -2 4 0 10 6 14 6 4 8 10 6 14 -3 4 1 8 8 8
7 0 13 -6 13 -13 0 -7 -3 -11 -7 -9 -4 2 -7 -2 -7 -9 0 -7 6 -13 13 -13 7 0
11 4 8 8 -2 4 0 10 6 14 6 4 8 10 6 14 -3 4 1 8 8 8 7 0 13 -6 13 -13 0 -7 -3
-11 -7 -9 -4 2 -7 -2 -7 -9 0 -7 6 -13 13 -13 7 0 11 4 8 8 -2 4 0 10 6 14 6
4 8 10 6 14 -3 4 1 8 8 8 7 0 13 -6 13 -13 0 -7 -3 -11 -7 -9 -4 2 -7 -2 -7
-9 0 -7 6 -13 13 -13 7 0 11 4 8 8 -2 4 0 10 6 14 6 4 8 10 6 14 -3 4 1 8 8 8
7 0 13 -6 13 -13 0 -7 -3 -11 -7 -9 -4 2 -7 -2 -7 -9 0 -7 6 -13 13 -13 7 0
11 4 8 8 -2 4 0 10 6 14 6 4 8 10 6 14 -3 4 1 8 8 8 7 0 13 -6 13 -13 0 -7 -3
-11 -7 -9 -4 2 -7 -2 -7 -9 0 -7 6 -13 13 -13 7 0 11 4 8 8 -2 4 0 10 6 14 6
4 8 10 6 14 -3 4 1 8 8 8 7 0 13 -6 13 -13 0 -7 -3 -11 -7 -9 -4 2 -7 -2 -7
-9 0 -7 6 -13 13 -13 7 0 11 4 8 8 -2 4 0 10 6 14 6 4 8 10 6 14 -3 4 1 8 8 8
7 0 13 -6 13 -13 0 -7 -3 -11 -7 -9 -4 2 -7 -2 -7 -9 0 -7 6 -13 13 -13 7 0
11 4 8 8 -2 4 0 10 6 14 6 4 8 10 6 14 -3 4 1 8 8 8 7 0 13 -6 13 -13 0 -7 -3
-11 -7 -9 -4 2 -7 -2 -7 -9 0 -7 6 -13 13 -13 7 0 11 4 8 8 -2 4 0 10 6 14 6
4 8 10 6 14 -3 4 1 8 8 8 7 0 13 -6 13 -13 0 -7 -3 -11 -7 -9 -4 2 -7 -2 -7
-9 0 -7 6 -13 13 -13 7 0 11 4 8 8 -2 4 0 10 6 14 6 4 8 10 6 14 -3 4 1 8 8 8
7 0 13 -6 13 -13 0 -7 -3 -11 -7 -9 -4 2 -7 -2 -7 -9 0 -7 6 -13 13 -13 7 0
11 4 8 8 -2 4 0 10 6 14 6 4 8 10 6 14 -3 4 1 8 8 8 7 0 13 -6 13 -13 0 -7 -3
-11 -7 -9 -4 2 -7 -2 -7 -9 0 -7 6 -13 13 -13 7 0 11 4 8 8 -2 4 0 10 6 14 6
4 8 10 6 14 -3 4 1 8 8 8 7 0 13 -6 13 -13 0 -7 -3 -11 -7 -9 -4 2 -7 -2 -7
-9 0 -7 6 -13 13 -13 7 0 11 4 8 8 -2 4 0 10 6 14 6 4 8 10 6 14 -3 4 1 8 8 8
7 0 13 -6 13 -13 0 -7 -3 -11 -7 -9 -4 2 -7 -2 -7 -9 0 -7 6 -13 13 -13 7 0
11 4 8 8 -2 4 0 10 6 14 6 4 8 10 6 14 -3 4 1 8 8 8 7 0 13 -6 13 -13 0 -7 -3
-11 -7 -9 -4 2 -7 -2 -7 -9 0 -7 6 -13 13 -13 7 0 11 4 8 8 -2 4 0 10 6 14 6
4 8 10 6 14 -3 4 1 8 8 8 7 0 13 -6 13 -13 0 -7 -3 -11 -7 -9 -4 2 -7 -2 -7
-9 0 -7 6 -13 13 -13 7 0 11 4 8 8 -2 4 0 10 6 14 6 4 8 10 6 14 -3 4 1 8 8 8
7 0 13 -6 13 -13 0 -7 -3 -11 -7 -9 -4 2 -7 -2 -7 -9 0 -7 6 -13 13 -13 7 0
11 4 8 8 -2 4 0 10 6 14 6 4 8 10 6 14 -3 4 1 8 8 8 7 0 13 -6 13 -13 0 -7 -3
-11 -7 -9 -4 2 -7 -2 -7 -9 0 -7 6 -13 13 -13 7 0 11 4 8 8 -2 4 0 10 6 14 6
4 8 10 6 14 -3 4 1 8 8 8 7 0 13 -6 13 -13 0 -7 -3 -11 -7 -9 -4 2 -7 -2 -7
-9 0 -7 6 -13 13 -13 7 0 11 4 8 8 -2 4 0 10 6 14 6 4 8 10 6 14 -3 4 1 8 8 8
7 0 13 -6 13 -13 0 -7 -3 -11 -7 -9 -4 2 -7 -2 -7 -9 0 -7 6 -13 13 -13 7 0
11 4 8 8 -2 4 0 10 6 14 6 4 8 10 6 14 -3 4 1 8 8 8 7 0 13 -6 13 -13 0 -7 -3
-11 -7 -9 -4 2 -7 -2 -7 -9 0 -7 6 -13 13 -13 7 0 11 4 8 8 -2 4 0 10 6 14 6
4 8 10 6 14 -3 4 1 8 8 8 7 0 13 -6 13 -13 0 -7 -3 -11 -7 -9 -4 2 -7 -2 -7
-9 0 -7 6 -13 13 -13 7 0 11 4 8 8 -2 4 0 10 6 14 6 4 8 10 6 14 -3 4 1 8 8 8
7 0 13 -6 13 -13 0 -7 -3 -11 -7 -9 -4 2 -7 -2 -7 -9 0 -7 6 -13 13 -13 7 0
11 4 8 8 -2 4 0 10 6 14 6 4 8 10 6 14 -3 4 1 8 8 8 7 0 13 -6 13 -13 0 -7 -3
-11 -7 -9 -4 2 -7 -2 -7 -9 0 -7 6 -13 13 -13 7 0 11 4 8 8 -2 4 0 10 6 14 6
4 8 10 6 14 -3 4 1 8 8 8 7 0 13 -6 13 -13 0 -7 -3 -11 -7 -9 -4 2 -7 -2 -7
-9 0 -7 6 -13 13 -13 7 0 11 4 8 8 -2 4 0 10 6 14 6 4 8 10 6 14 -3 4 1 8 8 8
7 0 13 -6 13 -13 0 -7 -3 -11 -7 -9 -4 2 -7 -2 -7 -9 0 -7 6 -13 13 -13 7 0
11 4 8 8 -2 4 0 10 6 14 6 4 8 10 6 14 -3 4 1 8 8 8 7 0 13 -6 13 -13 0 -7 -3
-11 -7 -9 -4 2 -7 -2 -7 -9 0 -7 6 -13 13 -13 7 0 11 4 8 8 -2 4 0 10 6 14 6
4 8 10 6 14 -3 4 1 8 8 8 7 0 13 -6 13 -13 0 -7 -3 -11 -7 -9 -4 2 -7 -2 -7
-9 0 -7 6 -13 13 -13 7 0 11 4 8 8 -2 4 0 10 6 14 6 4 8 10 6 14 -3 4 1 8 8 8
7 0 13 -6 13 -13 0 -7 -3 -11 -7 -9 -4 2 -7 -2 -7 -9 0 -7 6 -13 13 -13 7 0
11 4 8 8 -2 4 0 10 6 14 6 4 8 10 6 14 -3 4 1 8 8 8 7 0 13 -6 13 -13 0 -7 -3
-11 -7 -9 -4 2 -7 -2 -7 -9 0 -7 6 -13 13 -13 7 0 11 4 8 8 -2 4 0 10 6 14 6
4 8 10 6 14 -3 4 1 8 8 8 7 0 13 -6 13 -13 0 -7 -3 -11 -7 -9 -4 2 -7 -2 -7
-9 0 -7 6 -13 13 -13 7 0 11 4 8 8 -2 4 0 10 6 14 6 4 8 10 6 14 -3 4 1 8 8 8
7 0 13 -6 13 -13 0 -7 -3 -11 -7 -9 -4 2 -7 -2 -7 -9 0 -7 6 -13 13 -13 7 0
11 4 8 8 -2 4 0 10 6 14 6 4 8 10 6 14 -3 4 1 8 8 8 7 0 13 -6 13 -13 0 -7 -3
-11 -7 -9 -4 2 -7 -2 -7 -9 0 -7 6 -13 13 -13 7 0 11 4 8 8 -2 4 0 10 6 14 6
4 8 10 6 14 -3 4 1 8 8 8 7 0 13 -6 13 -13 0 -7 -3 -11 -7 -9 -4 2 -7 -2 -7
-9 0 -7 6 -13 13 -13 7 0 11 4 8 8 -2 4 0 10 6 14 6 4 8 10 6 14 -3 4 1 8 8 8
7 0 13 -6 13 -13 0 -7 -3 -11 -7 -9 -4 2 -7 -2 -7 -9 0 -7 6 -13 13 -13 7 0
11 4 8 8 -2 4 0 10 6 14 6 4 8 10 6 14 -3 4 1 8 8 8 7 0 13 -6 13 -13 0 -7 -3
-11 -7 -9 -4 2 -7 -2 -7 -9 0 -7 6 -13 13 -13 7 0 11 4 8 8 -2 4 0 10 6 14 6
4 8 10 6 14 -3 4 1 8 8 8 7 0 13 -6 13 -13 0 -7 -3 -11 -7 -9 -4 2 -7 -2 -7
-9 0 -7 6 -13 13 -13 7 0 11 4 8 8 -2 4 0 10 6 14 6 4 8 10 6 14 -3 4 1 8 8 8
7 0 13 -6 13 -13 0 -7 -3 -11 -7 -9 -4 2 -7 -2 -7 -9 0 -7 6 -13 13 -13 7 0
11 4 8 8 -2 4 0 10 6 14 6 4 8 10 6 14 -3 4 1 8 8 8 7 0 13 -6 13 -13 0 -7 -3
-11 -7 -9 -4 2 -7 -2 -7 -9 0 -7 6 -13 13 -13 7 0 11 4 8 8 -2 4 0 10 6 14 6
4 8 10 6 14 -3 4 1 8 8 8 7 0 13 -6 13 -13 0 -7 -3 -11 -7 -9 -4 2 -7 -2 -7
-9 0 -7 6 -13 13 -13 7 0 11 4 8 8 -2 4 0 10 6 14 6 4 8 10 6 14 -3 4 1 8 8 8
7 0 13 -6 13 -13 0 -7 -3 -11 -7 -9 -4 2 -7 -2 -7 -9 0 -7 6 -13 13 -13 7 0
11 4 8 8 -2 4 0 10 6 14 6 4 8 10 6 14 -3 4 1 8 8 8 7 0 13 -6 13 -13 0 -7 -3
-11 -7 -9 -4 2 -7 -2 -7 -9 0 -7 6 -13 13 -13 7 0 11 4 8 8 -2 4 0 10 6 14 6
4 8 10 6 14 -3 4 1 8 8 8 7 0 13 -6 13 -13 0 -7 -3 -11 -7 -9 -4 2 -7 -2 -7
-9 0 -7 6 -13 13 -13 7 0 11 4 8 8 -2 4 0 10 6 14 6 4 8 10 6 14 -3 4 1 8 8 8
7 0 13 -6 13 -13 0 -7 -3 -11 -7 -9 -4 2 -7 -2 -7 -9 0 -7 6 -13 13 -13 7 0
11 4 8 8 -2 4 0 10 6 14 6 4 8 10 6 14 -3 4 1 8 8 8 7 0 13 -6 13 -13 0 -7 -3
-11 -7 -9 -4 2 -7 -2 -7 -9 0 -7 6 -13 13 -13 7 0 11 4 8 8 -2 4 0 10 6 14 6
4 8 10 6 14 -3 4 1 8 8 8 7 0 13 -6 13 -13 0 -7 -3 -11 -7 -9 -4 2 -7 -2 -7
-9 0 -7 6 -13 13 -13 7 0 11 4 8 8 -2 4 0 10 6 14 6 4 8 10 6 14 -3 4 1 8 8 8
7 0 13 -6 13 -13 0 -7 -3 -11 -7 -9 -4 2 -7 -2 -7 -9 0 -7 6 -13 13 -13 7 0
11 4 8 8 -2 4 0 10 6 14 6 4 8 10 6 14 -3 4 1 8 8 8 7 0 13 -6 13 -13 0 -7 -3
-11 -7 -9 -4 2 -7 -2 -7 -9 0 -7 6 -13 13 -13 7 0 11 4 8 8 -2 4 0 10 6 14 6
4 8 10 6 14 -3 4 1 8 8 8 7 0 13 -6 13 -13 0 -7 -3 -11 -7 -9 -4 2 -7 -2 -7
-9 0 -7 6 -13 13 -13 7 0 11 4 8 8 -2 4 0 10 6 14 6 4 8 10 6 14 -3 4 1 8 8 8
7 0 13 -6 13 -13 0 -7 -3 -11 -7 -9 -4 2 -7 -2 -7 -9 0 -7 6 -13 13 -13 7 0
11 4 8 8 -2 4 0 10 6 14 6 4 8 10 6 14 -3 4 1 8 8 8 7 0 13 -6 13 -13 0 -7 -3
-11 -7 -9 -4 2 -7 -2 -7 -9 0 -7 6 -13 13 -13 7 0 11 4 8 8 -2 4 0 10 6 14 6
4 8 10 6 14 -3 4 1 8 8 8 7 0 13 -6 13 -13 0 -7 -3 -11 -7 -9 -4 2 -7 -2 -7
-9 0 -7 6 -13 13 -13 7 0 11 4 8 8 -2 4 0 10 6 14 6 4 8 10 6 14 -3 4 1 8 8 8
7 0 13 -6 13 -13 0 -7 -3 -11 -7 -9 -4 2 -7 -2 -7 -9 0 -7 6 -13 13 -13 7 0
11 4 8 8 -2 4 0 10 6 14 6 4 8 10 6 14 -3 4 1 8 8 8 7 0 13 -6 13 -13 0 -7 -3
-11 -7 -9 -4 2 -7 -2 -7 -9 0 -7 6 -13 13 -13 7 0 11 4 8 8 -2 4 0 10 6 14 6
4 8 10 6 14 -3 4 1 8 8 8 7 0 13 -6 13 -13 0 -7 -3 -11 -7 -9 -4 2 -7 -2 -7
-9 0 -7 6 -13 13 -13 7 0 11 4 8 8 -2 4 0 10 6 14 6 4 8 10 6 14 -3 4 1 8 8 8
7 0 13 -6 13 -13 0 -7 -3 -11 -7 -9 -4 2 -7 -2 -7 -9 0 -7 6 -13 13 -13 7 0
11 4 8 8 -2 4 0 10 6 14 6 4 8 10 6 14 -3 4 1 8 8 8 7 0 13 -6 13 -13 0 -7 -3
-11 -7 -9 -4 2 -7 -2 -7 -9 0 -7 6 -13 13 -13 7 0 11 4 8 8 -2 4 0 10 6 14 6
4 8 10 6 14 -3 4 1 8 8 8 7 0 13 -6 13 -13 0 -7 -3 -11 -7 -9 -4 2 -7 -2 -7
-9 0 -7 6 -13 13 -13 7 0 11 4 8 8 -2 4 0 10 6 14 6 4 8 10 6 14 -3 4 1 8 8 8
7 0 13 -6 13 -13 0 -7 -3 -11 -7 -9 -4 2 -7 -2 -7 -9 0 -7 6 -13 13 -13 7 0
11 4 8 8 -2 4 0 10 6 14 6 4 8 10 6 14 -3 4 1 8 8 8 7 0 13 -6 13 -13 0 -7 -3
-11 -7 -9 -4 2 -7 -2 -7 -9 0 -7 6 -13 13 -13 7 0 11 4 8 8 -2 4 0 10 6 14 6
4 8 10 6 14 -3 4 1 8 8 8 7 0 13 -6 13 -13 0 -7 -3 -11 -7 -9 -4 2 -7 -2 -7
-9 0 -7 6 -13 13 -13 7 0 11 4 8 8 -2 4 0 10 6 14 6 4 8 10 6 14 -3 4 1 8 8 8
7 0 13 -6 13 -13 0 -7 -3 -11 -7 -9 -4 2 -7 -2 -7 -9 0 -7 6 -13 13 -13 7 0
11 4 8 8 -2 4 0 10 6 14 6 4 8 10 6 14 -3 4 1 8 8 8 7 0 13 -6 13 -13 0 -7 -3
-11 -7 -9 -4 2 -7 -2 -7 -9 0 -7 6 -13 13 -13 7 0 11 4 8 8 -2 4 0 10 6 14 6
4 8 10 6 14 -3 4 1 8 8 8 7 0 13 -6 13 -13 0 -7 -3 -11 -7 -9 -4 2 -7 -2 -7
-9 0 -7 6 -13 13 -13 7 0 11 4 8 8 -2 4 0 10 6 14 6 4 8 10 6 14 -3 4 1 8 8 8
7 0 13 -6 13 -13 0 -7 -3 -11 -7 -9 -4 2 -7 -2 -7 -9 0 -7 6 -13 13 -13 7 0
11 4 8 8 -2 4 0 10 6 14 6 4 8 10 6 14 -3 4 1 8 8 8 7 0 13 -6 13 -13 0 -7 -3
-11 -7 -9 -4 2 -7 -2 -7 -9 0 -7 6 -13 13 -13 7 0 11 4 8 8 -2 4 0 10 6 14 6
4 8 10 6 14 -3 4 1 8 8 8 7 0 13 -6 13 -13 0 -7 -3 -11 -7 -9 -4 2 -7 -2 -7
-9 0 -7 6 -13 13 -13 7 0 11 4 8 8 -2 4 0 10 6 14 6 4 8 10 6 14 -3 4 1 8 8 8
7 0 13 -6 13 -13 0 -7 -3 -11 -7 -9 -4 2 -7 -2 -7 -9 0 -7 6 -13 13 -13 7 0
11 4 8 8 -2 4 0 10 6 14 6 4 8 10 6 14 -3 4 1 8 8 8 7 0 13 -6 13 -13 0 -7 -3
-11 -7 -9 -4 2 -7 -2 -7 -9 0 -7 6 -13 13 -13 7 0 11 4 8 8 -2 4 0 10 6 14 6
4 8 10 6 14 -3 4 1 8 8 8 7 0 13 -6 13 -13 0 -7 -3 -11 -7 -9 -4 2 -7 -2 -7
-9 0 -7 6 -13 13 -13 7 0 11 4 8 8 -2 4 0 10 6 14 6 4 8 10 6 14 -3 4 1 8 8 8
7 0 13 -6 13 -13 0 -7 -3 -11 -7 -9 -4 2 -7 -2 -7 -9 0 -7 6 -13 13 -13 7 0
11 4 8 8 -2 4 0 10 6 14 6 4 8 10 6 14 -3 4 1 8 8 8 7 0 13 -6 13 -13 0 -7 -3
-11 -7 -9 -4 2 -7 -2 -7 -9 0 -7 6 -13 13 -13 7 0 11 4 8 8 -2 4 0 10 6 14 6
4 8 10 6 14 -3 4 1 8 8 8 7 0 13 -6 13 -13 0 -7 -3 -11 -7 -9 -4 2 -7 -2 -7
-9 0 -7 6 -13 13 -13 7 0 11 4 8 8 -2 4 0 10 6 14 6 4 8 10 6 14 -3 4 1 8 8 8
7 0 13 -6 13 -13 0 -7 -3 -11 -7 -9 -4 2 -7 -2 -7 -9 0 -7 6 -13 13 -13 7 0
11 4 8 8 -2 4 0 10 6 14 6 4 8 10 6 14 -3 4 1 8 8 8 7 0 13 -6 13 -13 0 -7 -3
-11 -7 -9 -4 2 -7 -2 -7 -9 0 -7 6 -13 13 -13 7 0 11 4 8 8 -2 4 0 10 6 14 6
4 8 10 6 14 -3 4 1 8 8 8 7 0 13 -6 13 -13 0 -7 -3 -11 -7 -9 -4 2 -7 -2 -7
-9 0 -7 6 -13 13 -13 7 0 11 4 8 8 -2 4 0 10 6 14 6 4 8 10 6 14 -3 4 1 8 8 8
7 0 13 -6 13 -13 0 -7 -3 -11 -7 -9 -4 2 -7 -2 -7 -9 0 -7 6 -13 13 -13 7 0
11 4 8 8 -2 4 0 10 6 14 6 4 8 10 6 14 -3 4 1 8 8 8 7 0 13 -6 13 -13 0 -7 -3
-11 -7 -9 -4 2 -7 -2 -7 -9 0 -7 6 -13 13 -13 7 0 11 4 8 8 -2 4 0 10 6 14 6
4 8 10 6 14 -3 4 1 8 8 8 7 0 13 -6 13 -13 0 -7 -3 -11 -7 -9 -4 2 -7 -2 -7
-9 0 -7 6 -13 13 -13 7 0 11 4 8 8 -2 4 0 10 6 14 6 4 8 10 6 14 -3 4 1 8 8 8
7 0 13 -6 13 -13 0 -7 -3 -11 -7 -9 -4 2 -7 -2 -7 -9 0 -7 6 -13 13 -13 7 0
11 4 8 8 -2 4 0 10 6 14 6 4 8 10 6 14 -3 4 1 8 8 8 7 0 13 -6 13 -13 0 -7 -3
-11 -7 -9 -4 2 -7 -2 -7 -9 0 -7 6 -13 13 -13 7 0 11 4 8 8 -2 4 0 10 6 14 6
4 8 10 6 14 -3 4 1 8 8 8 7 0 13 -6 13 -13 0 -7 -3 -11 -7 -9 -4 2 -7 -2 -7
-9 0 -7 6 -13 13 -13 7 0 11 4 8 8 -2 4 0 10 6 14 6 4 8 10 6 14 -3 4 1 8 8 8
7 0 13 -6 13 -13 0 -7 -3 -11 -7 -9 -4 2 -7 -2 -7 -9 0 -7 6 -13 13 -13 7 0
11 4 8 8 -2 4 0 10 6 14 6 4 8 10 6 14 -3 4 1 8 8 8 7 0 13 -6 13 -13 0 -7 -3
-11 -7 -9 -4 2 -7 -2 -7 -9 0 -7 6 -13 13 -13 7 0 11 4 8 8 -2 4 0 10 6 14 6
4 8 10 6 14 -3 4 1 8 8 8 7 0 13 -6 13 -13 0 -7 -3 -11 -7 -9 -4 2 -7 -2 -7
-9 0 -7 6 -13 13 -13 7 0 11 4 8 8 -2 4 0 10 6 14 6 4 8 10 6 14 -3 4 1 8 8 8
7 0 13 -6 13 -13 0 -7 -3 -11 -7 -9 -4 2 -7 -2 -7 -9 0 -7 6 -13 13 -13 7 0
11 4 8 8 -2 4 0 10 6 14 6 4 8 10 6 14 -3 4 1 8 8 8 7 0 13 -6 13 -13 0 -7 -3
-11 -7 -9 -4 2 -7 -2 -7 -9 0 -7 6 -13 13 -13 7 0 12 3 11 6 -1 3 3 7 8 9 19
6 45 35 39 44 -3 4 -1 7 4 6 5 -2 38 20 73 47 95 76 116 89 214 138 304 152
697 173 1033 56 89 -31 245 -109 318 -159 l41 -29 18 31 c30 51 156 178 219
221 129 87 301 143 477 154 l87 6 1 165 c1 231 26 394 88 566 47 130 155 322
174 310 5 -3 6 1 4 8 -5 12 57 88 71 88 4 0 1 -6 -5 -13 -8 -10 -7 -14 4 -14
13 0 19 14 17 37 -1 8 1222 5 1235 -3 6 -4 13 -4 16 0 2 5 2 2 0 -5 -1 -8 -3
-20 -3 -28 0 -7 -14 -21 -31 -30 l-31 -16 28 38 c16 21 23 34 15 29 -8 -5 -12
-4 -8 1 3 5 -240 9 -600 9 -545 0 -606 -2 -608 -16 -2 -9 3 -16 11 -16 7 0 13
3 12 6 -2 20 5 22 23 5 11 -10 19 -14 17 -9 -2 6 2 10 7 10 6 0 9 -3 8 -6 -1
-3 4 -6 12 -6 8 0 14 3 13 6 -2 20 5 22 23 5 11 -10 19 -14 17 -9 -2 6 1 10 7
10 5 0 9 -3 8 -6 -1 -3 4 -6 12 -6 8 0 14 3 13 6 -2 20 5 22 23 5 11 -10 19
-14 17 -9 -2 6 1 10 7 10 5 0 9 -3 8 -6 -1 -3 4 -6 12 -6 8 0 14 3 13 6 -2 20
5 22 23 5 11 -10 19 -14 17 -9 -2 6 2 10 7 10 6 0 9 -3 8 -6 -1 -3 4 -6 12 -6
8 0 14 3 13 6 -2 20 5 22 23 5 11 -10 19 -14 17 -9 -2 6 2 10 7 10 6 0 9 -3 8
-6 -1 -3 4 -6 12 -6 8 0 14 3 13 6 -2 20 5 22 23 5 11 -10 19 -14 17 -9 -2 6
2 10 7 10 5 0 9 -3 8 -6 -1 -3 4 -6 12 -6 8 0 14 3 13 6 -2 20 5 22 23 5 11
-10 19 -14 17 -9 -2 6 2 10 7 10 6 0 9 -3 8 -6 -1 -3 4 -6 12 -6 8 0 14 3 13
6 -2 20 5 22 23 5 11 -10 19 -14 17 -9 -2 6 2 10 7 10 6 0 9 -3 8 -6 -1 -3 4
-6 12 -6 8 0 14 3 13 6 -2 20 5 22 23 5 11 -10 19 -14 17 -9 -2 6 1 10 7 10 5
0 9 -3 8 -6 -1 -3 4 -6 12 -6 8 0 14 3 13 6 -2 20 5 22 23 5 11 -10 19 -14 17
-9 -2 6 1 10 7 10 5 0 9 -3 8 -6 -1 -3 4 -6 12 -6 8 0 14 3 13 6 -2 20 5 22
23 5 11 -10 19 -14 17 -9 -2 6 2 10 7 10 5 0 9 -3 8 -6 -1 -3 4 -6 12 -6 8 0
14 3 13 6 -2 20 5 22 23 5 11 -10 19 -14 17 -9 -2 6 2 10 7 10 6 0 9 -3 8 -6
-1 -3 4 -6 12 -6 8 0 14 3 13 6 -2 20 5 22 23 5 11 -10 19 -14 17 -9 -2 6 2
10 7 10 6 0 9 -3 8 -6 -1 -3 4 -6 12 -6 8 0 14 3 13 6 -2 20 5 22 23 5 11 -10
19 -14 17 -9 -2 6 2 10 7 10 6 0 9 -3 8 -6 -1 -3 4 -6 12 -6 8 0 13 3 12 6 -1
3 2 6 8 6 5 0 9 -3 8 -6 -1 -3 4 -6 12 -6 8 0 12 4 9 8 -2 4 0 10 5 13 5 4 12
2 15 -2 7 -12 -23 -54 -34 -47 -4 3 -6 -3 -4 -12 7 -26 118 -93 143 -86 11 3
34 29 52 58 18 30 36 52 41 49 4 -3 3 6 -3 20 -7 14 -15 23 -19 21 -4 -3 -13
2 -20 10 -9 10 -9 15 -1 15 6 0 11 -5 11 -11 0 -6 5 -7 13 -2 22 14 377 10
389 -4 6 -7 15 -13 20 -13 6 0 33 -18 62 -41 l51 -41 3 291 2 291 28 -13 c79
-41 255 -54 362 -28 57 14 154 59 203 93 26 19 29 19 46 4 38 -35 71 -9 71 56
0 27 9 43 46 78 69 68 147 175 203 280 l50 95 46 0 46 0 38 -115 c45 -138 131
-309 213 -425 63 -88 200 -227 256 -258 31 -17 32 -17 32 0 -1 10 -25 35 -57
58 -105 75 -234 237 -310 390 -45 88 -133 319 -133 347 0 4 42 8 94 8 52 0
117 5 144 11 l49 12 94 -73 c52 -40 100 -77 107 -83 9 -7 12 2 12 40 0 50 0
51 -65 99 -35 27 -65 51 -65 54 0 3 16 14 35 24 19 10 42 27 51 37 15 16 12
20 -47 63 -126 92 -210 107 -547 100 l-223 -5 -82 33 -82 32 -307 4 -308 4 0
119 0 119 820 0 820 0 0 45 0 45 -915 0 -915 0 2 160 3 160 913 0 912 0 0 820
0 820 -9475 0 -9475 0 0 -2050z m14510 1028 c0 -7 9 -24 20 -38 14 -18 20 -41
20 -82 0 -59 8 -70 30 -43 7 8 23 15 35 15 12 0 28 -7 35 -15 7 -8 19 -15 26
-15 11 0 14 -24 14 -117 l0 -116 25 23 25 23 35 -39 c31 -35 34 -45 35 -101
l0 -61 43 -7 c23 -3 57 -11 75 -16 29 -10 32 -14 32 -50 0 -34 -3 -39 -17 -35
-10 3 -200 28 -423 56 -223 28 -416 53 -430 56 -23 5 -23 6 -6 16 13 7 59 8
133 4 l113 -7 0 117 c0 134 5 143 78 144 l42 0 0 113 c0 96 3 116 20 137 11
14 20 31 20 38 0 6 5 12 10 12 6 0 10 -6 10 -12z m-10069 -604 c57 -25 105
-47 107 -49 10 -9 41 -214 42 -280 4 -147 9 -135 -61 -135 -58 0 -177 24 -190
38 -4 4 -1 43 7 87 17 107 17 206 -1 302 -17 88 -16 83 -11 83 2 0 50 -21 107
-46z m-161 -260 l0 -227 -102 5 c-57 3 -110 9 -119 12 -13 6 4 44 98 221 63
118 117 215 119 215 2 0 4 -102 4 -226z m470 -50 c62 -69 110 -127 107 -130
-3 -3 -55 -8 -116 -11 l-111 -6 0 137 c0 75 2 136 4 136 2 0 54 -57 116 -126z
m-3660 -274 c52 -11 111 -20 131 -20 19 0 39 -4 45 -9 5 -5 54 -19 109 -31
135 -30 172 -51 189 -107 19 -62 -110 -189 -278 -273 l-100 -50 -1 -133 0
-132 -40 -2 c-88 -4 -236 -2 -250 3 -8 4 -15 15 -15 25 0 10 -4 19 -9 19 -13
0 -41 -40 -41 -58 0 -22 48 -62 74 -62 13 0 38 -8 54 -17 27 -15 36 -16 77 -5
38 10 50 10 63 0 13 -11 8 -14 -32 -18 l-48 -5 26 -24 25 -24 28 32 c16 18 37
31 51 31 22 0 23 -2 17 -42 -10 -60 -52 -199 -62 -209 -6 -6 -75 37 -172 103
l-162 113 6 45 c3 25 9 89 12 143 l6 98 -79 -8 c-114 -12 -263 -9 -306 6 -66
22 -85 74 -50 137 44 81 301 381 364 425 97 70 201 84 368 49z m3040 -15 l23
-25 -75 0 c-58 0 -77 -3 -82 -15 -4 -10 -20 -15 -50 -15 -30 0 -46 5 -50 15
-4 11 -22 15 -76 15 -63 0 -70 2 -70 20 0 21 22 23 256 28 96 2 102 1 124 -23z
m612 -77 c-16 -16 -35 3 -26 26 6 16 8 16 22 2 13 -12 14 -18 4 -28z m12448 1
c93 -20 177 -61 269 -129 106 -79 176 -114 262 -131 123 -24 284 11 378 82 48
36 56 39 117 39 l65 0 -78 -55 c-124 -87 -160 -106 -231 -125 -37 -10 -59 -19
-49 -19 16 -1 17 -18 17 -207 l0 -205 -87 68 c-190 148 -253 197 -386 299
l-138 106 44 28 c25 15 47 33 51 38 3 5 -17 24 -44 42 -28 18 -50 36 -50 40 0
9 -102 54 -145 65 -16 4 -113 7 -215 7 l-185 -1 45 21 c25 12 68 27 95 34 61
15 204 17 265 3z m-16950 -114 c0 -7 9 -17 20 -20 25 -8 26 -22 1 -30 -10 -3
-22 -16 -25 -28 l-7 -22 -9 22 c-5 12 -17 26 -27 32 -17 9 -17 11 5 26 12 9
22 23 22 31 0 8 5 12 10 9 6 -3 10 -12 10 -20z m16488 -46 c3 -15 -175 -171
-202 -177 -17 -4 -40 24 -33 42 3 7 43 46 89 85 67 57 89 70 113 68 18 -1 31
-8 33 -18z m1552 -184 c0 -29 -146 -254 -215 -330 l-45 -50 0 193 0 192 130 0
c72 0 130 -2 130 -5z m-815 -140 c72 -56 142 -110 157 -119 15 -10 26 -22 23
-26 -11 -18 -171 -32 -249 -21 -43 6 -79 11 -82 11 -2 0 -4 61 -4 136 0 105 3
134 13 128 6 -4 71 -53 142 -109z m-452 -194 c74 -86 77 -91 77 -140 l0 -51
50 0 50 0 0 -170 0 -170 -90 0 -90 0 0 140 0 140 -44 0 -43 0 -7 61 c-12 118
-4 279 13 279 4 0 42 -40 84 -89z m77 27 l0 -62 -36 35 c-20 18 -45 46 -56 62
l-19 27 55 0 56 0 0 -62z m707 -85 c56 -43 102 -81 103 -84 0 -13 -156 -87
-210 -100 -87 -21 -223 -15 -305 13 l-70 24 -3 107 -3 108 53 -8 c67 -10 223
-6 263 6 54 17 68 12 172 -66z m-3083 60 c4 -4 42 -8 84 -9 42 0 100 -2 127
-3 l50 -2 -40 -16 c-22 -8 -65 -27 -95 -41 -30 -14 -67 -25 -82 -26 -14 -1
-24 -4 -22 -7 2 -4 -31 -21 -74 -38 l-77 -31 -325 2 -325 3 50 23 c28 13 55
25 60 26 6 1 16 5 22 9 24 15 134 48 143 42 4 -3 10 0 12 6 2 6 17 12 34 13
17 2 36 6 42 10 7 4 34 8 60 10 27 1 54 6 61 10 7 5 62 10 123 11 60 2 112 6
115 9 9 8 48 7 57 -1z m-13974 -16 c-20 -7 -48 -30 -68 -57 -41 -54 -72 -69
-49 -23 28 52 84 92 132 92 12 0 6 -5 -15 -12z m-285 -193 c-14 -20 -25 -41
-25 -45 0 -5 -5 -9 -10 -9 -6 0 -1 18 10 39 16 33 25 42 47 50 1 1 -9 -15 -22
-35z m720 -174 c3 -6 -1 -7 -9 -4 -18 7 -21 14 -7 14 6 0 13 -4 16 -10z m-114
-27 c13 -16 12 -17 -3 -4 -17 13 -22 21 -14 21 2 0 10 -8 17 -17z m210 -66
c-10 -9 -11 -8 -5 6 3 10 9 15 12 12 3 -3 0 -11 -7 -18z m36 -2 c0 -8 -4 -12
-9 -9 -5 3 -6 10 -3 15 9 13 12 11 12 -6z m-177 -36 c0 -16 4 -28 8 -25 4 2 8
-3 8 -12 0 -9 4 -27 8 -39 7 -22 5 -23 -49 -23 -54 0 -55 1 -50 25 3 14 7 36
10 49 3 14 0 26 -7 28 -23 8 4 28 38 28 31 0 34 -2 34 -31z m100 11 c0 -5 -5
-10 -11 -10 -5 0 -7 5 -4 10 3 6 8 10 11 10 2 0 4 -4 4 -10z m14550 -3 c0 -2
-10 -12 -22 -23 l-23 -19 19 23 c18 21 26 27 26 19z m-14598 -59 c-7 -7 -12
-8 -12 -2 0 14 12 26 19 19 2 -3 -1 -11 -7 -17z m2148 -73 c11 -3 20 -10 20
-15 0 -5 -9 -12 -20 -15 -11 -4 -26 -18 -34 -33 l-14 -27 -12 26 c-6 14 -24
30 -38 36 l-27 10 26 12 c15 7 32 25 39 40 l12 26 14 -27 c8 -15 23 -29 34
-33z m12207 19 c-3 -3 -12 -4 -19 -1 -8 3 -5 6 6 6 11 1 17 -2 13 -5z m1168
-14 c3 -6 -1 -7 -9 -4 -18 7 -21 14 -7 14 6 0 13 -4 16 -10z m-15588 -44 c1
-1 -21 -14 -50 -29 -28 -15 -46 -22 -39 -15 7 7 12 22 12 34 0 21 4 22 38 17
20 -3 38 -6 39 -7z m483 -91 c32 -84 47 -166 36 -208 -13 -55 -106 -59 -204
-9 l-53 28 -3 79 c-2 44 -7 88 -11 97 -5 13 -2 15 12 12 10 -3 51 16 98 45 44
27 83 46 87 43 4 -4 21 -43 38 -87z m13880 85 c0 -5 -5 -10 -11 -10 -5 0 -7 5
-4 10 3 6 8 10 11 10 2 0 4 -4 4 -10z m1605 0 c3 -5 1 -10 -4 -10 -6 0 -11 5
-11 10 0 6 2 10 4 10 3 0 8 -4 11 -10z m-16165 -42 c0 -11 -12 -10 -30 2 -12
7 -10 9 8 7 12 0 22 -5 22 -9z m308 -205 c27 -20 32 -30 32 -66 0 -23 -4 -47
-8 -53 -11 -17 -80 -34 -140 -34 -51 0 -54 1 -68 35 -17 42 -18 71 -2 129 10
37 17 46 37 48 31 4 103 -25 149 -59z m2112 -154 c0 -10 -5 -19 -11 -19 -5 0
-8 -4 -4 -10 3 -5 1 -17 -4 -27 -5 -10 -12 -26 -15 -35 -6 -21 -46 -24 -46 -4
0 8 6 17 13 19 7 3 5 6 -5 6 -10 1 -18 5 -18 11 0 5 8 14 18 19 9 6 11 11 5
11 -23 0 -14 20 19 40 35 21 48 18 48 -11z m-2797 -169 c-5 -50 -8 -59 -15
-41 -7 21 -5 43 9 94 9 34 12 12 6 -53z m547 -450 c0 -30 1 -30 54 -30 40 0
55 -4 60 -16 12 -30 6 -34 -53 -34 l-59 0 8 -32 c4 -18 13 -46 18 -63 6 -16
18 -56 27 -87 l15 -57 118 -3 c104 -3 117 -5 120 -21 3 -13 -2 -18 -15 -17
-10 1 -60 2 -110 1 l-93 -1 0 -35 c0 -35 0 -35 -44 -35 -49 0 -51 3 -61 76 -7
58 -43 305 -51 352 -5 31 -4 32 31 32 32 0 35 -2 35 -30z m-247 -337 c2 -5 2
-27 -1 -50 l-4 -43 -194 0 c-183 0 -194 1 -194 19 0 10 -3 33 -6 50 l-6 31
200 0 c111 0 203 -3 205 -7z m104 -293 l10 -60 -234 0 -233 0 -4 23 c-3 12 -8
39 -11 60 l-6 37 234 0 234 0 10 -60z m863 -49 c42 -85 57 -143 46 -187 l-7
-27 -15 21 c-8 12 -22 45 -30 73 -16 54 -44 199 -38 199 2 0 22 -36 44 -79z
m10722 35 c7 4 8 2 4 -5 -10 -15 -26 -4 -25 17 1 15 2 15 6 -1 2 -9 9 -14 15
-11z m-11558 -163 c3 -16 14 -91 26 -168 11 -77 22 -155 25 -172 l6 -33 -236
0 c-129 0 -235 3 -235 8 0 4 -9 59 -19 122 -25 148 -35 246 -26 259 4 7 83 11
230 11 l223 0 6 -27z m98 -657 c34 -230 38 -220 -96 -211 -49 3 -146 5 -216 5
l-127 0 -18 118 c-21 147 -22 155 -30 224 l-7 57 233 -2 233 -2 28 -189z
m3715 -102 c-3 -3 -12 -4 -19 -1 -8 3 -5 6 6 6 11 1 17 -2 13 -5z m-3797 -203
c0 -24 34 -41 80 -41 41 0 49 -3 53 -22 11 -45 49 -329 45 -333 -2 -3 -108 -2
-234 2 l-230 6 -23 161 c-12 89 -25 176 -28 193 l-5 32 153 4 c85 1 162 4 172
5 9 1 17 -2 17 -7z m1587 -37 l82 -7 -43 -56 c-81 -105 -201 -204 -301 -250
-102 -47 -181 -63 -325 -68 -100 -4 -142 -2 -135 5 6 6 126 100 269 210 l259
199 56 -13 c31 -7 93 -16 138 -20z m1718 16 c33 -6 123 -14 200 -19 l140 -7
-105 -105 c-140 -140 -245 -203 -425 -250 -84 -22 -293 -26 -369 -6 l-48 13
253 197 c185 143 259 195 274 192 11 -3 47 -10 80 -15z m-1045 -252 l0 -232
-41 39 c-85 82 -217 277 -264 388 l-15 37 160 0 160 0 0 -232z m1450 228 c0
-13 -36 -84 -65 -131 -19 -30 -35 -57 -35 -60 0 -16 -124 -175 -174 -225 l-56
-54 0 57 0 57 -45 0 -45 0 0 -99 0 -99 -32 -24 c-215 -160 -511 -191 -733 -77
-33 17 -75 40 -93 51 l-32 20 136 108 137 108 51 -16 c82 -27 318 -23 419 6
194 56 355 162 490 323 27 33 55 59 63 59 8 0 14 -2 14 -4z m-3510 -458 c0 -7
12 -85 25 -173 14 -88 25 -172 25 -187 l0 -28 -227 6 c-126 4 -229 8 -231 9
-3 3 -17 87 -37 225 -9 58 -18 117 -21 133 l-6 27 236 0 c182 0 236 -3 236
-12z"/>
<path d="M14484 6265 c-7 -30 -8 -30 29 -39 27 -6 28 -5 25 26 -2 25 -8 34
-25 36 -17 3 -24 -3 -29 -23z"/>
<path d="M1205 5354 c-179 -31 -458 -126 -594 -200 l-63 -35 -36 21 c-24 15
-38 18 -45 11 -16 -16 4 -32 42 -33 l32 -1 -27 -28 c-14 -15 -24 -35 -22 -46
3 -16 14 -18 118 -18 63 1 127 4 143 8 25 7 27 11 27 61 l0 54 48 20 c67 29
217 72 275 79 56 7 67 -2 67 -54 0 -18 2 -33 5 -33 3 0 47 20 98 44 94 45 177
107 177 131 0 37 -100 45 -245 19z"/>
<path d="M350 5040 c0 -13 90 -13 110 0 11 7 -3 10 -47 10 -36 0 -63 -4 -63
-10z"/>
<path d="M982 4914 c2 -11 11 -20 22 -22 13 -3 17 1 14 14 -2 11 -11 20 -22
22 -13 3 -17 -1 -14 -14z"/>
<path d="M1132 4903 c5 -25 28 -28 28 -4 0 12 -6 21 -16 21 -9 0 -14 -7 -12
-17z"/>
<path d="M14506 4802 c-3 -5 1 -9 9 -9 8 0 12 4 9 9 -3 4 -7 8 -9 8 -2 0 -6
-4 -9 -8z"/>
<path d="M14561 4784 c0 -11 3 -14 6 -6 3 7 2 16 -1 19 -3 4 -6 -2 -5 -13z"/>
<path d="M14640 4788 c0 -9 -6 -19 -12 -21 -10 -4 -10 -6 0 -6 14 -1 28 26 18
36 -3 4 -6 -1 -6 -9z"/>
<path d="M14788 4793 c7 -3 16 -2 19 1 4 3 -2 6 -13 5 -11 0 -14 -3 -6 -6z"/>
<path d="M14516 4772 c-3 -5 1 -9 9 -9 8 0 12 4 9 9 -3 4 -7 8 -9 8 -2 0 -6
-4 -9 -8z"/>
<path d="M18713 5499 c55 -13 137 -54 191 -95 l46 -35 0 71 0 70 -137 -1
c-105 -1 -129 -3 -100 -10z"/>
<path d="M2546 4768 c-28 -40 -14 -78 29 -78 28 0 45 19 45 50 0 50 -47 68
-74 28z"/>
<path d="M2961 4696 c-7 -8 -11 -30 -9 -48 2 -27 8 -34 29 -36 33 -4 51 18 47
60 -2 27 -8 34 -29 36 -14 2 -31 -4 -38 -12z"/>
<path d="M2576 4341 c15 -16 166 -68 231 -81 50 -10 70 -9 124 4 60 16 88 30
78 40 -2 2 -29 -2 -59 -10 -70 -19 -141 -12 -262 26 -97 31 -129 37 -112 21z"/>
<path d="M16807 4088 c17 -19 25 -23 21 -10 -2 4 2 7 7 7 6 0 9 -3 8 -6 -1 -3
4 -6 12 -6 8 0 14 3 13 6 -2 20 5 22 23 5 11 -10 19 -14 17 -9 -2 6 2 10 7 10
6 0 9 -3 8 -6 -1 -3 4 -6 12 -6 8 0 14 3 13 6 -2 20 5 22 23 5 11 -10 19 -14
17 -9 -2 6 2 10 7 10 6 0 9 -3 8 -6 -1 -3 4 -6 12 -6 8 0 14 3 13 6 -2 20 5
22 23 5 11 -10 19 -14 17 -9 -2 6 2 10 7 10 6 0 9 -3 8 -6 -1 -3 4 -6 12 -6 8
0 13 3 12 6 -1 3 3 6 8 6 6 0 9 -3 8 -6 -1 -3 4 -6 12 -6 8 0 13 3 12 6 -1 3
3 6 8 6 6 0 9 -3 8 -6 -1 -3 5 -6 13 -6 13 0 13 3 -1 16 -13 13 -46 16 -200
16 -175 0 -183 -1 -168 -17z"/>
<path d="M15367 4049 c7 -7 15 -10 18 -7 3 3 -2 9 -12 12 -14 6 -15 5 -6 -5z"/>
<path d="M18534 4006 c-10 -8 -24 -34 -29 -57 -10 -41 -13 -44 -55 -52 -91
-17 -121 -29 -156 -59 -59 -52 -77 -109 -63 -199 8 -48 5 -59 -24 -118 -27
-57 -32 -76 -32 -147 0 -72 3 -84 27 -116 15 -20 47 -45 70 -57 51 -24 71 -52
62 -87 l-6 -25 -24 22 c-13 12 -27 20 -30 16 -11 -10 54 -113 94 -149 37 -33
38 -35 25 -66 -14 -35 -23 -38 -55 -21 -16 8 -19 8 -13 -1 24 -39 158 -63 221
-40 15 6 28 9 30 7 3 -2 -10 -51 -26 -108 -50 -168 -51 -171 -66 -165 -9 4
-18 -10 -28 -45 -8 -27 -25 -67 -37 -89 -20 -35 -31 -42 -101 -66 -48 -16 -78
-31 -78 -40 0 -10 -13 -14 -45 -14 l-45 0 0 45 0 45 -70 0 -69 0 -3 83 c-3 76
-5 82 -25 85 -19 3 -23 10 -23 38 l0 34 -95 0 c-88 0 -95 -1 -95 -20 0 -13 -7
-20 -20 -20 -13 0 -20 7 -20 20 0 11 -7 20 -15 20 -13 0 -15 -25 -15 -164 l0
-165 -92 -3 c-81 -3 -242 6 -197 10 9 1 31 16 49 32 l33 30 -5 103 c-6 118
-26 179 -68 204 -18 10 -31 28 -34 47 -3 18 -29 57 -59 90 l-53 60 -15 -46
c-13 -39 -14 -47 -1 -55 11 -6 13 -18 7 -41 -5 -25 -12 -32 -31 -32 -17 0 -24
6 -24 20 0 11 -4 20 -10 20 -5 0 -10 -8 -10 -19 0 -11 -9 -21 -22 -25 -36 -9
-38 -8 -39 27 -1 30 -1 31 -9 7 -4 -14 -8 -76 -9 -137 -1 -106 -2 -113 -21
-113 -13 0 -20 7 -20 19 0 11 -4 23 -10 26 -5 3 -10 18 -10 33 0 26 -2 27 -63
28 -49 1 -75 7 -127 34 -85 43 -209 120 -293 182 -58 43 -70 48 -80 36 -69
-84 -109 -148 -123 -196 -9 -31 -26 -79 -36 -107 -22 -53 -20 -135 4 -202 l12
-33 283 0 283 0 0 -105 0 -105 -212 -2 -212 -3 -8 -40 c-6 -37 -29 -373 -59
-872 -7 -112 -14 -202 -15 -200 -1 1 -10 81 -18 177 -9 96 -19 195 -22 219 -5
35 -3 43 9 38 7 -3 20 -2 27 3 10 6 7 24 -15 84 -20 56 -26 84 -21 111 4 20 3
42 -2 48 -8 10 -32 154 -32 194 0 7 7 13 15 13 19 0 55 36 55 55 0 23 -37 55
-64 55 -19 0 -24 6 -29 38 -4 20 -14 47 -22 60 l-16 22 -350 0 -349 0 0 -60
c0 -56 -1 -60 -24 -60 -21 0 -25 7 -35 60 l-12 60 -65 0 c-71 0 -72 0 -54 -74
8 -35 6 -41 -16 -58 -39 -31 -27 -88 18 -88 24 0 25 12 -22 -520 -22 -250 -40
-467 -40 -482 0 -27 1 -28 59 -28 l59 0 5 52 c4 29 11 110 18 181 l12 127 48
0 49 0 0 41 0 42 -46 -6 -46 -5 7 82 c4 44 10 110 15 146 5 36 14 131 21 213
11 132 14 147 31 147 13 0 18 7 18 25 0 23 4 25 45 25 l45 0 0 -535 0 -535 70
0 70 0 0 180 0 180 29 0 c32 0 27 22 52 -237 l12 -123 61 0 62 0 -12 138 c-7
75 -15 156 -17 180 l-5 42 137 0 137 0 16 -176 c9 -97 18 -177 20 -179 6 -6
441 -14 469 -8 l29 5 2 532 3 531 38 3 37 3 0 -534 0 -534 63 -6 c59 -6 598 2
606 9 2 1 -1 243 -6 536 -7 419 -12 539 -23 563 -23 48 -61 95 -99 121 l-36
24 126 0 126 0 6 -82 c4 -46 7 -327 7 -625 l0 -543 100 0 100 0 0 543 c0 298
3 579 7 625 l6 82 268 0 c184 0 269 -3 269 -11 0 -27 -53 -213 -85 -298 -41
-109 -42 -128 -15 -182 l21 -40 -61 -282 c-37 -174 -67 -291 -78 -307 -10 -14
-47 -39 -82 -56 -58 -28 -85 -56 -73 -77 2 -4 101 -7 219 -7 l214 0 1 53 c0
28 11 84 24 122 l23 70 1 -117 1 -118 115 0 115 0 0 408 c0 397 1 409 24 497
l24 90 1 -71 c1 -39 -4 -96 -10 -128 -10 -55 -9 -60 13 -83 13 -14 32 -29 44
-33 33 -13 44 -107 44 -368 l0 -232 -40 -20 c-30 -16 -40 -26 -40 -45 0 -25 2
-25 80 -25 l80 0 0 884 0 884 -57 -18 c-32 -10 -59 -17 -61 -15 -1 1 3 15 9
31 6 16 12 60 13 97 2 61 6 73 40 118 20 27 39 56 42 63 9 24 -158 89 -262
102 l-54 6 6 72 c3 39 7 86 10 104 10 65 106 142 176 142 18 -1 57 -9 86 -19
l52 -18 -1 306 -1 306 -28 -60 c-38 -81 -50 -155 -50 -298 l0 -120 -21 18
c-17 16 -25 17 -50 8 -26 -10 -35 -8 -74 15 -41 25 -44 30 -45 70 0 33 12 66
55 146 30 56 55 108 55 114 0 25 -37 10 -82 -35 -33 -32 -49 -42 -52 -32 -17
57 -39 109 -52 119 -19 16 -18 27 6 57 11 14 20 36 20 49 0 28 -33 64 -58 64
-10 0 -27 -6 -38 -14z m-253 -239 c-20 -20 -21 -20 -21 -3 0 11 8 28 18 39 16
18 17 18 20 2 2 -10 -5 -27 -17 -38z m83 -102 c35 -36 26 -107 -16 -121 -49
-15 -82 73 -43 116 22 24 38 25 59 5z m106 -160 c17 -20 -1 -41 -48 -55 -20
-6 -46 -16 -58 -21 -30 -15 -89 -7 -89 11 0 11 15 16 51 20 35 4 60 13 83 33
38 31 44 32 61 12z m-1290 -835 c-20 -13 -50 -13 -50 0 0 6 15 10 33 10 24 0
28 -3 17 -10z m0 -125 c0 -8 5 -15 10 -15 6 0 10 -4 10 -10 0 -5 -16 -10 -35
-10 l-35 0 0 50 0 49 25 -25 c14 -14 25 -31 25 -39z m800 -59 c0 -36 -4 -68
-10 -71 -6 -4 -10 20 -10 64 0 41 4 71 10 71 6 0 10 -28 10 -64z m-730 34 c0
-5 -7 -10 -15 -10 -8 0 -15 5 -15 10 0 6 7 10 15 10 8 0 15 -4 15 -10z m-1151
-780 c34 -148 53 -188 100 -216 27 -16 30 -24 36 -83 3 -36 8 -83 11 -103 l6
-38 -136 0 c-133 0 -136 0 -140 23 -6 27 -14 127 -11 127 2 0 28 -13 58 -29
63 -33 134 -48 149 -33 8 8 0 34 -25 86 -19 41 -33 83 -31 94 5 15 -46 260
-64 311 -3 11 -2 13 5 6 6 -5 25 -71 42 -145z m-265 -252 c21 -193 21 -188 -9
-188 l-25 0 1 238 c1 172 4 218 10 167 4 -38 14 -136 23 -217z"/>
<path d="M18306 3601 c-4 -6 -3 -18 2 -27 8 -14 10 -14 15 -2 7 19 -8 44 -17
29z"/>
<path d="M17725 3798 c-2 -7 -6 -47 -9 -88 -3 -41 -6 -76 -6 -77 0 -2 -11 -3
-25 -3 -24 0 -65 -31 -65 -48 0 -5 6 -17 14 -27 10 -14 11 -25 3 -42 -8 -17
-7 -27 1 -35 7 -7 12 -24 12 -38 0 -15 9 -35 20 -45 17 -16 20 -31 20 -112 0
-86 1 -93 20 -93 14 0 20 -7 20 -24 0 -33 36 -148 70 -223 38 -83 50 -88 155
-67 l85 17 0 61 c0 95 -18 185 -52 258 -16 36 -27 71 -23 77 3 6 -4 42 -16 79
-20 61 -21 73 -11 135 19 106 16 148 -9 154 -19 5 -20 10 -14 79 l7 74 -96 0
c-69 0 -98 -4 -101 -12z m178 -50 c-8 -111 -11 -118 -43 -118 -30 0 -40 13
-20 25 16 10 12 72 -5 79 -8 3 -15 13 -15 23 0 12 -8 5 -25 -19 -25 -37 -31
-59 -18 -71 4 -4 13 7 20 25 13 29 15 31 24 15 15 -25 7 -50 -16 -53 -11 -1
-35 -5 -52 -9 l-33 -7 6 48 c3 27 7 64 10 82 l5 32 83 0 83 0 -4 -52z"/>
<path d="M192 3778 c3 -7 13 -37 22 -65 10 -29 22 -53 27 -53 9 0 39 52 39 69
0 11 -69 61 -83 61 -5 0 -7 -6 -5 -12z"/>
<path d="M2 3258 l3 -183 27 3 c20 3 28 -1 28 -12 0 -11 -9 -16 -30 -16 l-30
0 0 -125 0 -125 29 0 c16 0 32 -6 34 -12 3 -7 6 68 6 166 1 152 -1 182 -15
197 -15 17 -14 21 17 61 18 24 46 54 62 68 l30 26 -64 58 c-107 97 -100 105
-97 -106z"/>
<path d="M16904 3340 c-22 -11 -57 -38 -79 -60 l-38 -39 18 -41 c24 -53 29
-55 62 -31 23 17 35 19 65 12 32 -8 38 -6 43 10 5 14 16 19 41 19 29 0 34 4
34 23 0 37 -11 66 -23 62 -42 -12 -68 -15 -62 -5 3 5 19 10 36 10 31 0 39 19
17 38 -28 22 -73 22 -114 2z m-19 -70 c-11 -5 -27 -9 -35 -9 -13 -1 -13 0 0 9
8 5 24 9 35 9 l20 0 -20 -9z"/>
<path d="M17063 3283 c3 -10 8 -31 12 -48 7 -30 7 -30 16 -6 7 17 5 30 -6 47
-18 28 -28 31 -22 7z"/>
<path d="M18166 3220 c17 -93 109 -266 154 -290 36 -19 34 -3 -4 42 -21 24
-64 97 -97 163 -37 76 -57 107 -53 85z"/>
<path d="M16726 3155 c-21 -31 -15 -55 13 -55 28 0 33 13 18 50 l-14 31 -17
-26z"/>
<path d="M2394 3134 c3 -9 6 -22 6 -30 0 -11 18 -14 80 -14 83 0 89 4 74 44
-5 13 -22 16 -86 16 -69 0 -79 -2 -74 -16z"/>
<path d="M16970 3118 c-13 -5 -43 -6 -65 -2 -32 5 -38 4 -28 -7 13 -13 106
-19 118 -7 15 15 -1 25 -25 16z"/>
<path d="M16004 3086 c-9 -24 0 -51 18 -54 19 -4 35 38 23 57 -9 16 -35 13
-41 -3z"/>
<path d="M16730 3076 c0 -8 7 -16 15 -20 10 -4 15 1 15 14 0 11 -7 20 -15 20
-8 0 -15 -6 -15 -14z"/>
<path d="M15765 3060 c-10 -16 24 -62 43 -58 21 4 28 34 12 53 -14 17 -46 20
-55 5z"/>
<path d="M2414 2963 c3 -43 9 -97 12 -120 l6 -43 89 0 c87 0 89 1 85 23 -3 12
-8 45 -11 72 -4 28 -11 71 -17 98 l-10 47 -80 0 -81 0 7 -77z"/>
<path d="M15963 2973 c-20 -28 -21 -28 -51 -10 -36 21 -42 21 -42 4 0 -18 63
-52 83 -44 24 9 52 56 40 68 -6 6 -17 -1 -30 -18z"/>
<path d="M15262 2842 c-34 -22 -32 -69 13 -288 25 -118 45 -217 45 -219 0 -3
27 -5 60 -5 l60 0 -17 35 c-14 29 -15 41 -5 68 8 25 8 45 -3 92 -19 79 -19 85
7 85 12 0 39 17 60 37 37 36 40 37 66 23 38 -21 63 -79 63 -144 0 -62 -6 -57
102 -76 54 -10 72 -18 92 -42 24 -29 25 -32 10 -54 l-15 -24 150 0 150 0 0 35
c0 28 -9 43 -47 80 l-48 45 19 34 c24 46 39 50 93 26 25 -11 47 -20 49 -20 2
0 4 27 4 59 0 58 -1 60 -27 63 -24 3 -28 8 -31 39 -2 25 -13 46 -36 68 -27 26
-37 30 -64 25 -29 -6 -34 -12 -48 -63 -8 -31 -17 -61 -19 -68 -2 -6 -17 -14
-34 -18 -21 -4 -31 -13 -31 -26 0 -22 -48 -57 -58 -43 -4 6 -33 48 -66 93
l-59 83 -51 -6 c-28 -3 -102 -8 -163 -12 l-113 -7 0 26 c0 14 -7 32 -15 41 -8
8 -15 19 -15 24 0 13 -35 42 -51 42 -8 0 -20 -4 -27 -8z"/>
<path d="M15855 2756 c-91 -14 -83 -25 20 -29 66 -2 70 -1 73 21 2 12 0 21 -5
21 -4 -1 -44 -7 -88 -13z"/>
<path d="M14450 1861 c-50 -9 -60 -36 -60 -167 l0 -111 -39 -18 c-38 -17 -40
-17 -69 5 -26 19 -29 27 -25 59 8 62 -40 80 -66 25 -6 -14 -11 -31 -11 -39 0
-8 -9 -15 -19 -15 -22 0 -61 -44 -61 -70 0 -38 37 -55 120 -54 l78 0 5 -37 c5
-39 44 -130 69 -162 12 -16 35 -18 207 -21 145 -3 195 -7 201 -17 14 -21 24
-181 13 -198 -5 -9 -29 -51 -52 -93 l-43 -78 84 -1 c257 -3 292 -1 305 18 23
31 54 144 66 241 18 152 -10 294 -82 412 l-39 65 -119 3 -118 3 3 38 c5 54
-21 111 -51 111 -42 0 -60 -32 -55 -98 l4 -58 -27 4 c-23 3 -27 9 -27 32 1 30
-8 50 -22 50 -15 0 -50 -43 -50 -61 0 -9 -6 -19 -13 -22 -8 -3 -27 -30 -42
-60 -26 -49 -31 -53 -41 -38 -11 14 -8 27 16 74 16 31 34 82 41 112 9 39 18
56 31 61 27 8 53 71 37 90 -13 16 -50 19 -65 4 -8 -8 -15 -6 -24 5 -7 8 -15
14 -19 14 -3 -1 -22 -4 -41 -8z"/>
<path d="M2699 1183 c-24 -4 -27 -9 -33 -71 -3 -37 -6 -115 -6 -174 l0 -108
75 0 75 0 0 180 0 180 -42 -1 c-24 -1 -55 -4 -69 -6z"/>
<path d="M15240 850 c0 -5 7 -7 15 -4 8 4 15 8 15 10 0 2 -7 4 -15 4 -8 0 -15
-4 -15 -10z"/>
<path d="M1950 675 c0 -168 1 -175 20 -175 19 0 20 7 20 175 0 168 -1 175 -20
175 -19 0 -20 -7 -20 -175z"/>
<path d="M17805 700 c30 -31 44 -29 66 12 9 16 5 18 -43 18 l-52 0 29 -30z"/>
<path d="M3260 446 l0 -174 53 -6 c90 -12 87 -18 87 180 l0 174 -70 0 -70 0 0
-174z"/>
<path d="M4020 385 l0 -175 24 0 24 0 0 175 1 175 -24 0 -25 0 0 -175z"/>
<path d="M15830 520 c-954 -3 -1724 -6 -1711 -8 37 -3 110 -41 122 -63 9 -19
60 -19 2359 -19 l2350 0 0 50 0 50 -692 -2 c-381 -2 -1474 -5 -2428 -8z"/>
<path d="M2136 389 c-175 -26 -317 -167 -350 -352 l-7 -37 657 0 657 0 -7 46
c-9 71 -63 172 -120 228 -59 58 -149 103 -232 116 -71 12 -516 11 -598 -1z"/>
</g>
</svg>
